<svg version="1.1" xmlns="http://www.w3.org/2000/svg" xmlns:xlink="http://www.w3.org/1999/xlink" x="0px" y="0px" viewBox="0 0 1000 1000" enable-background="new 0 0 1000 1000" xml:space="preserve"><g><path d="M218.6,673.3c12.2,36.2,50.9,64,89,64h533.1h18.6l5.2-18l122.6-426.6c12.2-42.5-15.8-80.1-59.6-80.1H406.8c-13.7,0-24.8,11.2-24.8,25s11.1,25,24.8,25h520.7c10.8,0,15,5.6,12,16.2L816.9,705.4l23.8-18H307.7c-16.9,0-36.7-14.2-42.1-30.1L58.3,42.3c-4.4-13.1-18.5-20.1-31.5-15.6c-13,4.4-19.9,18.6-15.5,31.7L218.6,673.3L218.6,673.3z M382,874.8c0-55.2-44.4-99.9-99.2-99.9c-54.8,0-99.2,44.7-99.2,99.9c0,55.2,44.4,99.9,99.2,99.9C337.6,974.7,382,929.9,382,874.8L382,874.8z M233.2,874.8c0-27.6,22.2-50,49.6-50c27.4,0,49.6,22.4,49.6,50c0,27.6-22.2,50-49.6,50C255.4,924.7,233.2,902.3,233.2,874.8L233.2,874.8z M902.7,874.8c0-55.2-44.4-99.9-99.2-99.9c-54.8,0-99.2,44.7-99.2,99.9c0,55.2,44.4,99.9,99.2,99.9C858.3,974.7,902.7,929.9,902.7,874.8L902.7,874.8z M754,874.8c0-27.6,22.2-50,49.6-50c27.4,0,49.6,22.4,49.6,50c0,27.6-22.2,50-49.6,50C776.2,924.7,754,902.3,754,874.8L754,874.8z"/></g></svg>