<svg version="1.1" xmlns="http://www.w3.org/2000/svg" xmlns:xlink="http://www.w3.org/1999/xlink" x="0px" y="0px" viewBox="0 0 1000 1000" enable-background="new 0 0 1000 1000" xml:space="preserve"><g><path d="M272.8,171.3c48.7,0,105.5,24.3,138,56.8l32.5,32.5l56.8,56.8l56.8-56.8l32.5-32.5c40.6-40.6,89.3-56.8,138-56.8c24.3,0,48.7,8.1,73,16.2c56.8,32.5,97.4,81.2,105.5,138c8.1,56.8-8.1,113.6-48.7,154.2l-40.6,40.6L621.7,715.1L500,836.8L378.3,715.1L183.5,520.3L151,487.8c-40.6-48.7-64.9-105.5-56.8-162.3c8.1-56.8,48.7-105.5,105.5-138C215.9,179.4,248.4,171.3,272.8,171.3L272.8,171.3 M272.8,90.1c-40.6,0-73,8.1-113.6,24.3c-170.4,89.3-194.8,308.4-73,430.1l40.6,40.6L321.4,780l129.9,129.9c8.1,0,32.5,8.1,48.7,8.1s40.6-8.1,48.7-24.3l129.9-129.9L873.3,569l40.6-40.6c121.7-121.7,97.4-332.8-73-422C808.4,90.1,767.8,82,727.2,82c-73,0-146.1,32.5-194.8,81.2L500,203.8l-32.5-32.5C418.8,122.6,345.8,90.1,272.8,90.1L272.8,90.1z"/></g></svg>