<svg version="1.1" xmlns="http://www.w3.org/2000/svg" xmlns:xlink="http://www.w3.org/1999/xlink" x="0px" y="0px" viewBox="0 0 1000 1000" enable-background="new 0 0 1000 1000" xml:space="preserve"><g><g><path d="M500,10c64,0,126.1,12.2,186.2,36.5c60.1,24.4,113.6,60,160.4,106.8c46.9,46.9,82.5,100.3,106.8,160.4C977.8,373.9,990,436,990,500c0,64-12.2,126.1-36.5,186.2c-24.4,60.1-60,113.6-106.8,160.4c-46.9,46.9-100.3,82.5-160.4,106.8C626.1,977.8,564,990,500,990c-64,0-126.1-12.2-186.2-36.5c-60.1-24.4-113.6-60-160.4-106.8c-46.9-46.9-82.5-100.3-106.8-160.4C22.2,626.1,10,564,10,500c0-64,12.2-126.1,36.5-186.2c24.4-60.1,60-113.6,106.8-160.4S253.7,70.9,313.8,46.5C373.9,22.2,436,10,500,10z M314.2,377.2L186.8,249.8c-28.8,36-50.6,75.4-65.4,118.3C106.5,411,99.1,455,99.1,500c0,45,7.4,89,22.3,131.9c14.8,42.9,36.7,82.4,65.4,118.3l127.4-127.4c-24.6-37.1-36.9-78.1-36.9-122.8C277.3,455.2,289.6,414.3,314.2,377.2L314.2,377.2z M750.2,813.2L622.8,685.8c-37.1,24.6-78.1,36.9-122.8,36.9c-44.8,0-85.7-12.3-122.8-36.9L249.8,813.2c36,28.8,75.4,50.6,118.3,65.4C411,893.5,455,900.9,500,900.9c45,0,89-7.4,131.9-22.3C674.8,863.8,714.3,842,750.2,813.2L750.2,813.2z M500,366.4c-36.9,0-68.4,13.1-94.5,39.2c-26.1,26.1-39.2,57.6-39.2,94.5s13.1,68.4,39.2,94.5c26.1,26.1,57.6,39.2,94.5,39.2s68.4-13.1,94.5-39.2c26.1-26.1,39.2-57.6,39.2-94.5s-13.1-68.4-39.2-94.5C568.4,379.4,536.9,366.4,500,366.4z M500,99.1c-45,0-89,7.4-131.9,22.3c-42.9,14.8-82.4,36.7-118.3,65.4l127.4,127.4c37.1-24.6,78.1-36.9,122.8-36.9s85.7,12.3,122.8,36.9l127.4-127.4c-36-28.8-75.4-50.6-118.3-65.4C589,106.5,545,99.1,500,99.1L500,99.1z M813.2,249.8L685.8,377.2c24.6,37.1,36.9,78.1,36.9,122.8s-12.3,85.7-36.9,122.8l127.4,127.4c28.8-36,50.6-75.4,65.4-118.3C893.5,589,900.9,545,900.9,500c0-45-7.4-89-22.3-131.9C863.8,325.2,842,285.7,813.2,249.8L813.2,249.8z"/></g></g></svg>