<svg version="1.1" xmlns="http://www.w3.org/2000/svg" xmlns:xlink="http://www.w3.org/1999/xlink" x="0px" y="0px" viewBox="0 0 1000 1000" enable-background="new 0 0 1000 1000" xml:space="preserve"><g><path d="M982.1,515.4c10.5-8.5,10.5-22.4,0-30.9l-86.5-70c-10.5-8.5-15.1-25.7-10.3-38.3l39.9-103.9c4.8-12.6-2.1-24.6-15.4-26.7l-110-17.4c-13.3-2.1-25.9-14.7-28-28l-17.4-110c-1.6-10.4-9.4-17-18.7-17c-2.6,0-5.3,0.5-8,1.5l-103.9,39.9c-3.4,1.3-7.1,1.9-10.9,1.9c-10.3,0-21.2-4.5-27.4-12.2l-70-86.5c-4.2-5.2-9.8-7.9-15.4-7.9c-5.6,0-11.2,2.6-15.4,7.9l-70,86.5c-6.2,7.7-17.1,12.2-27.4,12.2c-3.8,0-7.5-0.6-10.9-1.9L272.3,74.7c-2.7-1-5.4-1.5-8-1.5c-9.3,0-17.1,6.5-18.7,17l-17.4,110c-2.1,13.3-14.7,25.9-28,28l-110,17.4c-13.3,2.1-20.3,14.1-15.4,26.7l39.9,103.9c4.8,12.6,0.2,29.8-10.3,38.3l-86.5,70c-10.5,8.5-10.5,22.4,0,30.9l86.5,70c10.5,8.5,15.1,25.7,10.3,38.3L74.7,727.7c-4.8,12.6,2.1,24.6,15.4,26.7l110,17.4c13.3,2.1,25.9,14.7,28,28l17.4,110c1.7,10.4,9.4,17,18.7,17c2.6,0,5.3-0.5,8-1.5l103.9-39.9c3.4-1.3,7.1-1.9,10.9-1.9c10.3,0,21.2,4.5,27.4,12.2l70,86.5c4.2,5.2,9.8,7.9,15.4,7.9c5.6,0,11.2-2.6,15.4-7.9l70-86.5c6.2-7.7,17.1-12.2,27.4-12.2c3.8,0,7.5,0.6,10.9,1.9l103.9,39.9c2.7,1,5.4,1.5,8,1.5c9.3,0,17.1-6.5,18.7-17l17.4-110c2.1-13.3,14.7-25.9,28-28.1l110-17.4c13.3-2.1,20.3-14.1,15.4-26.7l-39.9-103.9c-4.8-12.6-0.2-29.8,10.3-38.3L982.1,515.4z M860.3,541.9c-29.4,23.8-40.9,66.7-27.3,102l23.9,62.2l-65.8,10.4c-37.3,5.9-68.7,37.3-74.6,74.6l-10.4,65.8L643.9,833c-9.8-3.7-20.2-5.6-31-5.6c-27.7,0-54.2,12.3-70.9,33L500,912.1l-41.9-51.8c-16.7-20.6-43.2-33-70.9-33c-10.8,0-21.3,1.9-31,5.6l-62.2,23.9l-10.4-65.8c-5.9-37.3-37.3-68.7-74.6-74.6l-65.8-10.4l23.9-62.2c13.6-35.3,2.1-78.2-27.3-102L87.9,500l51.8-41.9c29.4-23.8,40.9-66.7,27.3-102l-23.9-62.2l65.8-10.4c37.3-5.9,68.7-37.3,74.6-74.6l10.4-65.8l62.2,23.9c9.7,3.7,20.2,5.6,31,5.6c27.7,0,54.2-12.3,70.9-33L500,87.9l41.9,51.8c16.7,20.6,43.2,33,70.9,33c10.8,0,21.3-1.9,31-5.6l62.2-23.9l10.4,65.8c5.9,37.3,37.3,68.7,74.6,74.6l65.8,10.4L833,356.1c-13.6,35.3-2.1,78.2,27.3,102l51.8,41.9L860.3,541.9z"/><path d="M566.4,325.9L361.1,695.7h44.5l205.9-369.8H566.4z"/><path d="M455.8,432.1c0-61.1-34.7-106.2-96.3-106.2c-61.1,0-100.2,48.4-100.2,112.2c0,67.2,43,107.9,97.4,107.9C408.5,546,455.8,507,455.8,432.1z M358.4,500.3c-24.2,0-36.9-26.9-36.9-64.4c0-35.8,11.6-64.4,36.3-64.4c25.9,0,35.8,28.1,35.8,64.4C393.6,476.1,382,500.3,358.4,500.3z"/><path d="M617,474.5c-61.1,0-100.1,48.5-100.1,112.3c0.6,67.2,43.4,107.8,97.4,107.8c51.7,0,99.1-39.1,99.1-113.9C713.3,519.6,678.7,474.5,617,474.5z M615.9,648.9c-24.3,0-36.9-27-36.4-64.4c0-35.8,11-64.4,36.4-64.4c25.8,0,35.2,28.1,35.2,64.4C651.1,624.7,639.5,648.9,615.9,648.9z"/></g></svg>