<svg version="1.1" xmlns="http://www.w3.org/2000/svg" xmlns:xlink="http://www.w3.org/1999/xlink" x="0px" y="0px" viewBox="0 0 1000 1000" enable-background="new 0 0 1000 1000" xml:space="preserve"><g><g><g id="search"><g><path d="M979.5,928.7L742.1,691.4c60.7-72.1,97.3-165.1,97.3-266.7c0-229-185.7-414.7-414.7-414.7C195.7,10,10,195.7,10,424.7c0,229,185.7,414.7,414.7,414.7c101.6,0,194.5-36.6,266.7-97.3l237.3,237.3c14,14,36.7,14,50.7,0C993.5,965.5,993.5,942.8,979.5,928.7z M424.7,764.1c-187.4,0-339.3-151.9-339.3-339.3c0-187.4,151.9-339.3,339.3-339.3c187.4,0,339.3,151.9,339.3,339.3C764,612.1,612.1,764.1,424.7,764.1z"/></g></g></g><g></g><g></g><g></g><g></g><g></g><g></g><g></g><g></g><g></g><g></g><g></g><g></g><g></g><g></g><g></g></g></svg>